<?xml version="1.0" standalone="no"?>
<!DOCTYPE svg PUBLIC "-//W3C//DTD SVG 20010904//EN"
 "http://www.w3.org/TR/2001/REC-SVG-20010904/DTD/svg10.dtd">
<svg version="1.0" xmlns="http://www.w3.org/2000/svg"
 width="622.000000pt" height="599.000000pt" viewBox="0 0 622.000000 599.000000"
 preserveAspectRatio="xMidYMid meet">
<metadata>
Created by potrace 1.15, written by Peter Selinger 2001-2017
</metadata>
<g transform="translate(0.000000,599.000000) scale(0.100000,-0.100000)"
fill="#FFFFFF" stroke="none">
<path d="M3845 5979 c-465 -59 -893 -269 -1228 -604 -290 -290 -485 -654 -572
-1066 -33 -153 -45 -475 -26 -636 36 -285 126 -548 272 -788 l55 -90 -391
-385 c-1350 -1331 -1924 -1903 -1939 -1934 -24 -51 -21 -144 6 -194 28 -50
200 -237 243 -263 44 -27 187 -27 232 0 17 11 161 147 320 303 714 701 1470
1445 1719 1691 l271 268 74 -62 c106 -89 234 -171 384 -244 772 -377 1720
-210 2345 415 169 170 292 343 401 565 145 294 208 567 209 897 0 332 -63 604
-207 891 -115 231 -210 353 -483 627 -228 229 -316 295 -540 408 -221 112
-418 172 -660 202 -99 12 -384 11 -485 -1z m735 -642 c256 -62 465 -163 647
-316 141 -116 276 -367 343 -635 64 -253 62 -486 -5 -756 -96 -384 -346 -734
-690 -965 -88 -59 -287 -156 -386 -188 -467 -153 -965 -88 -1364 178 -161 107
-238 195 -339 386 -189 359 -223 807 -91 1205 33 102 130 300 191 389 263 392
673 652 1140 725 33 5 147 7 254 5 167 -2 210 -7 300 -28z"/>
</g>
</svg>
